<mxfile host="app.diagrams.net" agent="Mozilla/5.0 (Windows NT 10.0; Win64; x64) AppleWebKit/537.36 (KHTML, like Gecko) Chrome/128.0.0.0 Safari/537.36 Edg/128.0.0.0" version="24.7.14">
  <diagram name="第 1 页" id="W1ELrUkU9No1__SZ6t0V">
    <mxGraphModel dx="2084" dy="1146" grid="1" gridSize="10" guides="1" tooltips="1" connect="1" arrows="1" fold="1" page="1" pageScale="1" pageWidth="827" pageHeight="1169" math="1" shadow="0">
      <root>
        <mxCell id="0" />
        <mxCell id="1" parent="0" />
        <mxCell id="PdSdZM6IH-UgS7kiSACt-1" value="&lt;font style=&quot;font-size: 19px;&quot;&gt;假如我们现在得到了节点的多个特征向量，那么要如何分配节点这些向量的权重，来融合多个特征向量，成为一个特征向量呢？答案是使用Attention机制&lt;/font&gt;" style="text;strokeColor=none;align=left;fillColor=none;html=1;verticalAlign=middle;whiteSpace=wrap;rounded=0;" vertex="1" parent="1">
          <mxGeometry x="10" y="240" width="530" height="30" as="geometry" />
        </mxCell>
        <mxCell id="PdSdZM6IH-UgS7kiSACt-2" value="&lt;font style=&quot;font-size: 19px;&quot;&gt;Attention机制其实就是将多个特征向量经过若干个全连接层，然后输出层的维度为1。这样，对于每一个特征向量来说，就能得到一个一维的输出&lt;/font&gt;" style="text;strokeColor=none;align=left;fillColor=none;html=1;verticalAlign=middle;whiteSpace=wrap;rounded=0;" vertex="1" parent="1">
          <mxGeometry x="10" y="330" width="420" height="30" as="geometry" />
        </mxCell>
        <mxCell id="PdSdZM6IH-UgS7kiSACt-5" value="" style="strokeWidth=2;html=1;shape=mxgraph.flowchart.annotation_1;align=left;pointerEvents=1;" vertex="1" parent="1">
          <mxGeometry x="20" y="405" width="20" height="180" as="geometry" />
        </mxCell>
        <mxCell id="PdSdZM6IH-UgS7kiSACt-7" value="" style="strokeWidth=2;html=1;shape=mxgraph.flowchart.annotation_1;align=left;pointerEvents=1;rotation=-180;" vertex="1" parent="1">
          <mxGeometry x="60" y="405" width="20" height="180" as="geometry" />
        </mxCell>
        <mxCell id="PdSdZM6IH-UgS7kiSACt-8" value="&lt;font style=&quot;font-size: 14px;&quot;&gt;$$x_1$$&lt;/font&gt;" style="text;strokeColor=none;align=center;fillColor=none;html=1;verticalAlign=middle;whiteSpace=wrap;rounded=0;" vertex="1" parent="1">
          <mxGeometry x="20" y="405" width="60" height="30" as="geometry" />
        </mxCell>
        <mxCell id="PdSdZM6IH-UgS7kiSACt-9" value="&lt;font style=&quot;font-size: 19px;&quot;&gt;假如我们现在得到了一个节点、其有3个特征向量，分别为X,Y,Z，然后每个节点的维度为4维&lt;/font&gt;" style="text;strokeColor=none;align=left;fillColor=none;html=1;verticalAlign=middle;whiteSpace=wrap;rounded=0;" vertex="1" parent="1">
          <mxGeometry x="480" y="340" width="610" height="30" as="geometry" />
        </mxCell>
        <mxCell id="PdSdZM6IH-UgS7kiSACt-10" style="edgeStyle=orthogonalEdgeStyle;rounded=0;orthogonalLoop=1;jettySize=auto;html=1;exitX=0.5;exitY=1;exitDx=0;exitDy=0;" edge="1" parent="1" source="PdSdZM6IH-UgS7kiSACt-9" target="PdSdZM6IH-UgS7kiSACt-9">
          <mxGeometry relative="1" as="geometry" />
        </mxCell>
        <mxCell id="PdSdZM6IH-UgS7kiSACt-11" value="&lt;font style=&quot;font-size: 14px;&quot;&gt;$$x_2$$&lt;/font&gt;" style="text;strokeColor=none;align=center;fillColor=none;html=1;verticalAlign=middle;whiteSpace=wrap;rounded=0;" vertex="1" parent="1">
          <mxGeometry x="20" y="450" width="60" height="30" as="geometry" />
        </mxCell>
        <mxCell id="PdSdZM6IH-UgS7kiSACt-12" value="&lt;font style=&quot;font-size: 14px;&quot;&gt;$$x_3$$&lt;/font&gt;" style="text;strokeColor=none;align=center;fillColor=none;html=1;verticalAlign=middle;whiteSpace=wrap;rounded=0;" vertex="1" parent="1">
          <mxGeometry x="20" y="490" width="60" height="30" as="geometry" />
        </mxCell>
        <mxCell id="PdSdZM6IH-UgS7kiSACt-13" value="&lt;font style=&quot;font-size: 14px;&quot;&gt;$$x_4$$&lt;/font&gt;" style="text;strokeColor=none;align=center;fillColor=none;html=1;verticalAlign=middle;whiteSpace=wrap;rounded=0;" vertex="1" parent="1">
          <mxGeometry x="20" y="535" width="60" height="30" as="geometry" />
        </mxCell>
        <mxCell id="PdSdZM6IH-UgS7kiSACt-14" value="" style="strokeWidth=2;html=1;shape=mxgraph.flowchart.annotation_1;align=left;pointerEvents=1;" vertex="1" parent="1">
          <mxGeometry x="20" y="600" width="20" height="180" as="geometry" />
        </mxCell>
        <mxCell id="PdSdZM6IH-UgS7kiSACt-15" value="" style="strokeWidth=2;html=1;shape=mxgraph.flowchart.annotation_1;align=left;pointerEvents=1;rotation=-180;" vertex="1" parent="1">
          <mxGeometry x="60" y="600" width="20" height="180" as="geometry" />
        </mxCell>
        <mxCell id="PdSdZM6IH-UgS7kiSACt-16" value="&lt;font style=&quot;font-size: 14px;&quot;&gt;$$y_1$$&lt;/font&gt;" style="text;strokeColor=none;align=center;fillColor=none;html=1;verticalAlign=middle;whiteSpace=wrap;rounded=0;" vertex="1" parent="1">
          <mxGeometry x="20" y="610" width="60" height="30" as="geometry" />
        </mxCell>
        <mxCell id="PdSdZM6IH-UgS7kiSACt-17" value="&lt;font style=&quot;font-size: 14px;&quot;&gt;$$y_2$$&lt;/font&gt;" style="text;strokeColor=none;align=center;fillColor=none;html=1;verticalAlign=middle;whiteSpace=wrap;rounded=0;" vertex="1" parent="1">
          <mxGeometry x="20" y="645" width="60" height="30" as="geometry" />
        </mxCell>
        <mxCell id="PdSdZM6IH-UgS7kiSACt-18" value="&lt;font style=&quot;font-size: 14px;&quot;&gt;$$y_3$$&lt;/font&gt;" style="text;strokeColor=none;align=center;fillColor=none;html=1;verticalAlign=middle;whiteSpace=wrap;rounded=0;" vertex="1" parent="1">
          <mxGeometry x="20" y="695" width="60" height="30" as="geometry" />
        </mxCell>
        <mxCell id="PdSdZM6IH-UgS7kiSACt-19" value="&lt;font style=&quot;font-size: 14px;&quot;&gt;$$y_4$$&lt;/font&gt;" style="text;strokeColor=none;align=center;fillColor=none;html=1;verticalAlign=middle;whiteSpace=wrap;rounded=0;" vertex="1" parent="1">
          <mxGeometry x="20" y="740" width="60" height="30" as="geometry" />
        </mxCell>
        <mxCell id="PdSdZM6IH-UgS7kiSACt-20" style="edgeStyle=none;rounded=0;orthogonalLoop=1;jettySize=auto;html=1;exitX=1;exitY=0.5;exitDx=0;exitDy=0;entryX=0;entryY=0.5;entryDx=0;entryDy=0;" edge="1" parent="1" source="PdSdZM6IH-UgS7kiSACt-23" target="PdSdZM6IH-UgS7kiSACt-36">
          <mxGeometry relative="1" as="geometry" />
        </mxCell>
        <mxCell id="PdSdZM6IH-UgS7kiSACt-21" style="edgeStyle=none;rounded=0;orthogonalLoop=1;jettySize=auto;html=1;exitX=1;exitY=0.5;exitDx=0;exitDy=0;entryX=0;entryY=0.5;entryDx=0;entryDy=0;" edge="1" parent="1" source="PdSdZM6IH-UgS7kiSACt-23" target="PdSdZM6IH-UgS7kiSACt-37">
          <mxGeometry relative="1" as="geometry" />
        </mxCell>
        <mxCell id="PdSdZM6IH-UgS7kiSACt-22" style="edgeStyle=none;rounded=0;orthogonalLoop=1;jettySize=auto;html=1;exitX=1;exitY=0.5;exitDx=0;exitDy=0;entryX=0;entryY=0.5;entryDx=0;entryDy=0;" edge="1" parent="1" source="PdSdZM6IH-UgS7kiSACt-23" target="PdSdZM6IH-UgS7kiSACt-38">
          <mxGeometry relative="1" as="geometry" />
        </mxCell>
        <mxCell id="PdSdZM6IH-UgS7kiSACt-23" value="" style="ellipse;whiteSpace=wrap;html=1;aspect=fixed;" vertex="1" parent="1">
          <mxGeometry x="240" y="530" width="40" height="40" as="geometry" />
        </mxCell>
        <mxCell id="PdSdZM6IH-UgS7kiSACt-24" style="edgeStyle=none;rounded=0;orthogonalLoop=1;jettySize=auto;html=1;exitX=1;exitY=0.5;exitDx=0;exitDy=0;entryX=0;entryY=0.5;entryDx=0;entryDy=0;" edge="1" parent="1" source="PdSdZM6IH-UgS7kiSACt-27" target="PdSdZM6IH-UgS7kiSACt-36">
          <mxGeometry relative="1" as="geometry" />
        </mxCell>
        <mxCell id="PdSdZM6IH-UgS7kiSACt-25" style="edgeStyle=none;rounded=0;orthogonalLoop=1;jettySize=auto;html=1;exitX=1;exitY=0.5;exitDx=0;exitDy=0;entryX=0;entryY=0.5;entryDx=0;entryDy=0;" edge="1" parent="1" source="PdSdZM6IH-UgS7kiSACt-27" target="PdSdZM6IH-UgS7kiSACt-37">
          <mxGeometry relative="1" as="geometry" />
        </mxCell>
        <mxCell id="PdSdZM6IH-UgS7kiSACt-26" style="edgeStyle=none;rounded=0;orthogonalLoop=1;jettySize=auto;html=1;exitX=1;exitY=0.5;exitDx=0;exitDy=0;entryX=0;entryY=0.5;entryDx=0;entryDy=0;" edge="1" parent="1" source="PdSdZM6IH-UgS7kiSACt-27" target="PdSdZM6IH-UgS7kiSACt-38">
          <mxGeometry relative="1" as="geometry" />
        </mxCell>
        <mxCell id="PdSdZM6IH-UgS7kiSACt-27" value="" style="ellipse;whiteSpace=wrap;html=1;aspect=fixed;" vertex="1" parent="1">
          <mxGeometry x="240" y="630" width="40" height="40" as="geometry" />
        </mxCell>
        <mxCell id="PdSdZM6IH-UgS7kiSACt-28" style="edgeStyle=none;rounded=0;orthogonalLoop=1;jettySize=auto;html=1;exitX=1;exitY=0.5;exitDx=0;exitDy=0;entryX=0;entryY=0.5;entryDx=0;entryDy=0;" edge="1" parent="1" source="PdSdZM6IH-UgS7kiSACt-31" target="PdSdZM6IH-UgS7kiSACt-36">
          <mxGeometry relative="1" as="geometry" />
        </mxCell>
        <mxCell id="PdSdZM6IH-UgS7kiSACt-29" style="edgeStyle=none;rounded=0;orthogonalLoop=1;jettySize=auto;html=1;exitX=1;exitY=0.5;exitDx=0;exitDy=0;entryX=0;entryY=0.5;entryDx=0;entryDy=0;" edge="1" parent="1" source="PdSdZM6IH-UgS7kiSACt-31" target="PdSdZM6IH-UgS7kiSACt-37">
          <mxGeometry relative="1" as="geometry" />
        </mxCell>
        <mxCell id="PdSdZM6IH-UgS7kiSACt-30" style="edgeStyle=none;rounded=0;orthogonalLoop=1;jettySize=auto;html=1;exitX=1;exitY=0.5;exitDx=0;exitDy=0;entryX=0;entryY=0.5;entryDx=0;entryDy=0;" edge="1" parent="1" source="PdSdZM6IH-UgS7kiSACt-31" target="PdSdZM6IH-UgS7kiSACt-38">
          <mxGeometry relative="1" as="geometry" />
        </mxCell>
        <mxCell id="PdSdZM6IH-UgS7kiSACt-31" value="" style="ellipse;whiteSpace=wrap;html=1;aspect=fixed;" vertex="1" parent="1">
          <mxGeometry x="240" y="730" width="40" height="40" as="geometry" />
        </mxCell>
        <mxCell id="PdSdZM6IH-UgS7kiSACt-32" style="edgeStyle=none;rounded=0;orthogonalLoop=1;jettySize=auto;html=1;exitX=1;exitY=0.5;exitDx=0;exitDy=0;entryX=0;entryY=0.5;entryDx=0;entryDy=0;" edge="1" parent="1" source="PdSdZM6IH-UgS7kiSACt-35" target="PdSdZM6IH-UgS7kiSACt-36">
          <mxGeometry relative="1" as="geometry" />
        </mxCell>
        <mxCell id="PdSdZM6IH-UgS7kiSACt-33" style="edgeStyle=none;rounded=0;orthogonalLoop=1;jettySize=auto;html=1;exitX=1;exitY=0.5;exitDx=0;exitDy=0;entryX=0;entryY=0.5;entryDx=0;entryDy=0;" edge="1" parent="1" source="PdSdZM6IH-UgS7kiSACt-35" target="PdSdZM6IH-UgS7kiSACt-37">
          <mxGeometry relative="1" as="geometry" />
        </mxCell>
        <mxCell id="PdSdZM6IH-UgS7kiSACt-34" style="edgeStyle=none;rounded=0;orthogonalLoop=1;jettySize=auto;html=1;exitX=1;exitY=0.5;exitDx=0;exitDy=0;entryX=0;entryY=0.5;entryDx=0;entryDy=0;" edge="1" parent="1" source="PdSdZM6IH-UgS7kiSACt-35" target="PdSdZM6IH-UgS7kiSACt-38">
          <mxGeometry relative="1" as="geometry" />
        </mxCell>
        <mxCell id="PdSdZM6IH-UgS7kiSACt-35" value="" style="ellipse;whiteSpace=wrap;html=1;aspect=fixed;" vertex="1" parent="1">
          <mxGeometry x="240" y="830" width="40" height="40" as="geometry" />
        </mxCell>
        <mxCell id="PdSdZM6IH-UgS7kiSACt-36" value="" style="ellipse;whiteSpace=wrap;html=1;aspect=fixed;" vertex="1" parent="1">
          <mxGeometry x="540" y="570" width="40" height="40" as="geometry" />
        </mxCell>
        <mxCell id="PdSdZM6IH-UgS7kiSACt-59" style="edgeStyle=none;rounded=0;orthogonalLoop=1;jettySize=auto;html=1;exitX=1;exitY=0.5;exitDx=0;exitDy=0;" edge="1" parent="1" source="PdSdZM6IH-UgS7kiSACt-37" target="PdSdZM6IH-UgS7kiSACt-57">
          <mxGeometry relative="1" as="geometry" />
        </mxCell>
        <mxCell id="PdSdZM6IH-UgS7kiSACt-37" value="" style="ellipse;whiteSpace=wrap;html=1;aspect=fixed;" vertex="1" parent="1">
          <mxGeometry x="540" y="670" width="40" height="40" as="geometry" />
        </mxCell>
        <mxCell id="PdSdZM6IH-UgS7kiSACt-60" style="edgeStyle=none;rounded=0;orthogonalLoop=1;jettySize=auto;html=1;exitX=1;exitY=0.5;exitDx=0;exitDy=0;entryX=0;entryY=0.5;entryDx=0;entryDy=0;" edge="1" parent="1" source="PdSdZM6IH-UgS7kiSACt-38" target="PdSdZM6IH-UgS7kiSACt-57">
          <mxGeometry relative="1" as="geometry" />
        </mxCell>
        <mxCell id="PdSdZM6IH-UgS7kiSACt-38" value="" style="ellipse;whiteSpace=wrap;html=1;aspect=fixed;" vertex="1" parent="1">
          <mxGeometry x="540" y="770" width="40" height="40" as="geometry" />
        </mxCell>
        <mxCell id="PdSdZM6IH-UgS7kiSACt-39" value="$$w_{11}$$" style="text;strokeColor=none;align=center;fillColor=none;html=1;verticalAlign=middle;whiteSpace=wrap;rounded=0;fontSize=19;" vertex="1" parent="1">
          <mxGeometry x="340" y="535" width="60" height="30" as="geometry" />
        </mxCell>
        <mxCell id="PdSdZM6IH-UgS7kiSACt-40" value="$$w_{12}$$" style="text;strokeColor=none;align=center;fillColor=none;html=1;verticalAlign=middle;whiteSpace=wrap;rounded=0;fontSize=19;" vertex="1" parent="1">
          <mxGeometry x="350" y="570" width="60" height="30" as="geometry" />
        </mxCell>
        <mxCell id="PdSdZM6IH-UgS7kiSACt-41" value="$$w_{13}$$" style="text;strokeColor=none;align=center;fillColor=none;html=1;verticalAlign=middle;whiteSpace=wrap;rounded=0;fontSize=19;" vertex="1" parent="1">
          <mxGeometry x="271" y="569" width="60" height="30" as="geometry" />
        </mxCell>
        <mxCell id="PdSdZM6IH-UgS7kiSACt-42" value="$$w_{21}$$" style="text;strokeColor=none;align=center;fillColor=none;html=1;verticalAlign=middle;whiteSpace=wrap;rounded=0;fontSize=19;" vertex="1" parent="1">
          <mxGeometry x="290" y="610" width="60" height="30" as="geometry" />
        </mxCell>
        <mxCell id="PdSdZM6IH-UgS7kiSACt-43" value="$$w_{22}$$" style="text;strokeColor=none;align=center;fillColor=none;html=1;verticalAlign=middle;whiteSpace=wrap;rounded=0;fontSize=19;" vertex="1" parent="1">
          <mxGeometry x="320" y="635" width="60" height="30" as="geometry" />
        </mxCell>
        <mxCell id="PdSdZM6IH-UgS7kiSACt-44" value="$$w_{23}$$" style="text;strokeColor=none;align=center;fillColor=none;html=1;verticalAlign=middle;whiteSpace=wrap;rounded=0;fontSize=19;" vertex="1" parent="1">
          <mxGeometry x="280" y="665" width="60" height="30" as="geometry" />
        </mxCell>
        <mxCell id="PdSdZM6IH-UgS7kiSACt-45" value="$$w_{31}$$" style="text;strokeColor=none;align=center;fillColor=none;html=1;verticalAlign=middle;whiteSpace=wrap;rounded=0;fontSize=19;" vertex="1" parent="1">
          <mxGeometry x="290" y="695" width="60" height="30" as="geometry" />
        </mxCell>
        <mxCell id="PdSdZM6IH-UgS7kiSACt-46" value="$$w_{32}$$" style="text;strokeColor=none;align=center;fillColor=none;html=1;verticalAlign=middle;whiteSpace=wrap;rounded=0;fontSize=19;" vertex="1" parent="1">
          <mxGeometry x="320" y="725" width="60" height="30" as="geometry" />
        </mxCell>
        <mxCell id="PdSdZM6IH-UgS7kiSACt-47" value="$$w_{33}$$" style="text;strokeColor=none;align=center;fillColor=none;html=1;verticalAlign=middle;whiteSpace=wrap;rounded=0;fontSize=19;" vertex="1" parent="1">
          <mxGeometry x="290" y="755" width="60" height="30" as="geometry" />
        </mxCell>
        <mxCell id="PdSdZM6IH-UgS7kiSACt-48" value="$$w_{43}$$" style="text;strokeColor=none;align=center;fillColor=none;html=1;verticalAlign=middle;whiteSpace=wrap;rounded=0;fontSize=19;" vertex="1" parent="1">
          <mxGeometry x="331" y="830" width="60" height="30" as="geometry" />
        </mxCell>
        <mxCell id="PdSdZM6IH-UgS7kiSACt-49" value="$$w_{42}$$" style="text;strokeColor=none;align=center;fillColor=none;html=1;verticalAlign=middle;whiteSpace=wrap;rounded=0;fontSize=19;" vertex="1" parent="1">
          <mxGeometry x="340" y="790" width="60" height="30" as="geometry" />
        </mxCell>
        <mxCell id="PdSdZM6IH-UgS7kiSACt-50" value="$$w_{41}$$" style="text;strokeColor=none;align=center;fillColor=none;html=1;verticalAlign=middle;whiteSpace=wrap;rounded=0;fontSize=19;" vertex="1" parent="1">
          <mxGeometry x="271" y="785" width="60" height="30" as="geometry" />
        </mxCell>
        <mxCell id="PdSdZM6IH-UgS7kiSACt-51" value="" style="strokeWidth=2;html=1;shape=mxgraph.flowchart.annotation_1;align=left;pointerEvents=1;" vertex="1" parent="1">
          <mxGeometry x="20" y="810" width="20" height="180" as="geometry" />
        </mxCell>
        <mxCell id="PdSdZM6IH-UgS7kiSACt-52" value="" style="strokeWidth=2;html=1;shape=mxgraph.flowchart.annotation_1;align=left;pointerEvents=1;rotation=-180;" vertex="1" parent="1">
          <mxGeometry x="60" y="810" width="20" height="180" as="geometry" />
        </mxCell>
        <mxCell id="PdSdZM6IH-UgS7kiSACt-53" value="&lt;font style=&quot;font-size: 14px;&quot;&gt;$$z_1$$&lt;/font&gt;" style="text;strokeColor=none;align=center;fillColor=none;html=1;verticalAlign=middle;whiteSpace=wrap;rounded=0;" vertex="1" parent="1">
          <mxGeometry x="20" y="815" width="60" height="30" as="geometry" />
        </mxCell>
        <mxCell id="PdSdZM6IH-UgS7kiSACt-54" value="&lt;font style=&quot;font-size: 14px;&quot;&gt;$$z_2$$&lt;/font&gt;" style="text;strokeColor=none;align=center;fillColor=none;html=1;verticalAlign=middle;whiteSpace=wrap;rounded=0;" vertex="1" parent="1">
          <mxGeometry x="20" y="855" width="60" height="30" as="geometry" />
        </mxCell>
        <mxCell id="PdSdZM6IH-UgS7kiSACt-55" value="&lt;font style=&quot;font-size: 14px;&quot;&gt;$$z_3$$&lt;/font&gt;" style="text;strokeColor=none;align=center;fillColor=none;html=1;verticalAlign=middle;whiteSpace=wrap;rounded=0;" vertex="1" parent="1">
          <mxGeometry x="20" y="895" width="60" height="30" as="geometry" />
        </mxCell>
        <mxCell id="PdSdZM6IH-UgS7kiSACt-56" value="&lt;font style=&quot;font-size: 14px;&quot;&gt;$$z_4$$&lt;/font&gt;" style="text;strokeColor=none;align=center;fillColor=none;html=1;verticalAlign=middle;whiteSpace=wrap;rounded=0;" vertex="1" parent="1">
          <mxGeometry x="20" y="940" width="60" height="30" as="geometry" />
        </mxCell>
        <mxCell id="PdSdZM6IH-UgS7kiSACt-57" value="" style="ellipse;whiteSpace=wrap;html=1;aspect=fixed;" vertex="1" parent="1">
          <mxGeometry x="680" y="670" width="40" height="40" as="geometry" />
        </mxCell>
        <mxCell id="PdSdZM6IH-UgS7kiSACt-58" style="rounded=0;orthogonalLoop=1;jettySize=auto;html=1;exitX=1;exitY=0.5;exitDx=0;exitDy=0;entryX=0;entryY=0.5;entryDx=0;entryDy=0;" edge="1" parent="1" source="PdSdZM6IH-UgS7kiSACt-36" target="PdSdZM6IH-UgS7kiSACt-57">
          <mxGeometry relative="1" as="geometry">
            <mxPoint x="670" y="684" as="targetPoint" />
          </mxGeometry>
        </mxCell>
        <mxCell id="PdSdZM6IH-UgS7kiSACt-62" value="&lt;font style=&quot;font-size: 18px;&quot;&gt;....&lt;/font&gt;" style="text;strokeColor=none;align=center;fillColor=none;html=1;verticalAlign=middle;whiteSpace=wrap;rounded=0;" vertex="1" parent="1">
          <mxGeometry x="140" y="450" width="60" height="30" as="geometry" />
        </mxCell>
        <mxCell id="PdSdZM6IH-UgS7kiSACt-63" value="&lt;font style=&quot;font-size: 18px;&quot;&gt;....&lt;/font&gt;" style="text;strokeColor=none;align=center;fillColor=none;html=1;verticalAlign=middle;whiteSpace=wrap;rounded=0;" vertex="1" parent="1">
          <mxGeometry x="140" y="665" width="60" height="30" as="geometry" />
        </mxCell>
        <mxCell id="PdSdZM6IH-UgS7kiSACt-64" value="&lt;font style=&quot;font-size: 18px;&quot;&gt;....&lt;/font&gt;" style="text;strokeColor=none;align=center;fillColor=none;html=1;verticalAlign=middle;whiteSpace=wrap;rounded=0;" vertex="1" parent="1">
          <mxGeometry x="140" y="880" width="60" height="30" as="geometry" />
        </mxCell>
        <mxCell id="PdSdZM6IH-UgS7kiSACt-67" value="&lt;font style=&quot;font-size: 18px;&quot;&gt;$$x$$&lt;/font&gt;" style="text;strokeColor=none;align=center;fillColor=none;html=1;verticalAlign=middle;whiteSpace=wrap;rounded=0;" vertex="1" parent="1">
          <mxGeometry x="810" y="460" width="60" height="30" as="geometry" />
        </mxCell>
        <mxCell id="PdSdZM6IH-UgS7kiSACt-69" value="&lt;font style=&quot;font-size: 18px;&quot;&gt;$$y$$&lt;/font&gt;" style="text;html=1;align=center;verticalAlign=middle;resizable=0;points=[];autosize=1;strokeColor=none;fillColor=none;" vertex="1" parent="1">
          <mxGeometry x="810" y="660" width="70" height="40" as="geometry" />
        </mxCell>
        <mxCell id="PdSdZM6IH-UgS7kiSACt-70" value="&lt;font style=&quot;font-size: 18px;&quot;&gt;$$z$$&lt;/font&gt;" style="text;html=1;align=center;verticalAlign=middle;resizable=0;points=[];autosize=1;strokeColor=none;fillColor=none;" vertex="1" parent="1">
          <mxGeometry x="810" y="985" width="70" height="40" as="geometry" />
        </mxCell>
        <mxCell id="PdSdZM6IH-UgS7kiSACt-80" style="edgeStyle=none;rounded=0;orthogonalLoop=1;jettySize=auto;html=1;exitX=1;exitY=0.5;exitDx=0;exitDy=0;exitPerimeter=0;entryX=0;entryY=0.75;entryDx=0;entryDy=0;" edge="1" parent="1" source="PdSdZM6IH-UgS7kiSACt-71" target="PdSdZM6IH-UgS7kiSACt-77">
          <mxGeometry relative="1" as="geometry" />
        </mxCell>
        <mxCell id="PdSdZM6IH-UgS7kiSACt-81" style="edgeStyle=none;rounded=0;orthogonalLoop=1;jettySize=auto;html=1;exitX=1;exitY=0.5;exitDx=0;exitDy=0;exitPerimeter=0;" edge="1" parent="1" source="PdSdZM6IH-UgS7kiSACt-71" target="PdSdZM6IH-UgS7kiSACt-78">
          <mxGeometry relative="1" as="geometry" />
        </mxCell>
        <mxCell id="PdSdZM6IH-UgS7kiSACt-82" style="edgeStyle=none;rounded=0;orthogonalLoop=1;jettySize=auto;html=1;exitX=1;exitY=0.5;exitDx=0;exitDy=0;exitPerimeter=0;entryX=0;entryY=0.5;entryDx=0;entryDy=0;" edge="1" parent="1" source="PdSdZM6IH-UgS7kiSACt-71" target="PdSdZM6IH-UgS7kiSACt-79">
          <mxGeometry relative="1" as="geometry" />
        </mxCell>
        <mxCell id="PdSdZM6IH-UgS7kiSACt-71" value="" style="verticalLabelPosition=bottom;verticalAlign=top;html=1;shape=mxgraph.basic.patternFillRect;fillStyle=hor;step=5;fillStrokeWidth=0.2;fillStrokeColor=#dddddd;" vertex="1" parent="1">
          <mxGeometry x="1010" y="650" width="120" height="60" as="geometry" />
        </mxCell>
        <mxCell id="PdSdZM6IH-UgS7kiSACt-72" value="&lt;font style=&quot;font-size: 18px;&quot;&gt;softmax&lt;/font&gt;" style="text;strokeColor=none;align=center;fillColor=none;html=1;verticalAlign=middle;whiteSpace=wrap;rounded=0;" vertex="1" parent="1">
          <mxGeometry x="1040" y="665" width="60" height="30" as="geometry" />
        </mxCell>
        <mxCell id="PdSdZM6IH-UgS7kiSACt-73" style="edgeStyle=none;rounded=0;orthogonalLoop=1;jettySize=auto;html=1;exitX=1;exitY=0.5;exitDx=0;exitDy=0;entryX=0;entryY=0.5;entryDx=0;entryDy=0;entryPerimeter=0;" edge="1" parent="1" source="PdSdZM6IH-UgS7kiSACt-67" target="PdSdZM6IH-UgS7kiSACt-71">
          <mxGeometry relative="1" as="geometry" />
        </mxCell>
        <mxCell id="PdSdZM6IH-UgS7kiSACt-74" style="edgeStyle=none;rounded=0;orthogonalLoop=1;jettySize=auto;html=1;entryX=0;entryY=0.5;entryDx=0;entryDy=0;entryPerimeter=0;" edge="1" parent="1" source="PdSdZM6IH-UgS7kiSACt-69" target="PdSdZM6IH-UgS7kiSACt-71">
          <mxGeometry relative="1" as="geometry" />
        </mxCell>
        <mxCell id="PdSdZM6IH-UgS7kiSACt-75" style="edgeStyle=none;rounded=0;orthogonalLoop=1;jettySize=auto;html=1;entryX=0;entryY=0.5;entryDx=0;entryDy=0;entryPerimeter=0;" edge="1" parent="1" source="PdSdZM6IH-UgS7kiSACt-70" target="PdSdZM6IH-UgS7kiSACt-71">
          <mxGeometry relative="1" as="geometry" />
        </mxCell>
        <mxCell id="PdSdZM6IH-UgS7kiSACt-77" value="&lt;font style=&quot;font-size: 18px;&quot;&gt;$$p(x)$$&lt;/font&gt;" style="text;strokeColor=none;align=center;fillColor=none;html=1;verticalAlign=middle;whiteSpace=wrap;rounded=0;" vertex="1" parent="1">
          <mxGeometry x="1290" y="460" width="60" height="30" as="geometry" />
        </mxCell>
        <mxCell id="PdSdZM6IH-UgS7kiSACt-78" value="&lt;font style=&quot;font-size: 18px;&quot;&gt;$$p(y)$$&lt;/font&gt;" style="text;strokeColor=none;align=center;fillColor=none;html=1;verticalAlign=middle;whiteSpace=wrap;rounded=0;" vertex="1" parent="1">
          <mxGeometry x="1280" y="665" width="60" height="30" as="geometry" />
        </mxCell>
        <mxCell id="PdSdZM6IH-UgS7kiSACt-79" value="&lt;font style=&quot;font-size: 18px;&quot;&gt;$$p(z)$$&lt;/font&gt;" style="text;strokeColor=none;align=center;fillColor=none;html=1;verticalAlign=middle;whiteSpace=wrap;rounded=0;" vertex="1" parent="1">
          <mxGeometry x="1290" y="1000" width="60" height="30" as="geometry" />
        </mxCell>
        <mxCell id="PdSdZM6IH-UgS7kiSACt-86" value="" style="strokeWidth=2;html=1;shape=mxgraph.flowchart.annotation_1;align=left;pointerEvents=1;rotation=-180;" vertex="1" parent="1">
          <mxGeometry x="1370" y="475" width="50" height="550" as="geometry" />
        </mxCell>
        <mxCell id="PdSdZM6IH-UgS7kiSACt-87" value="&lt;font style=&quot;font-size: 19px;&quot;&gt;得到概率值之后，概率值和原始的特征向量相乘可以得到新的特征向量，然后再进行累加得到最后该节点的特征向量&lt;/font&gt;" style="text;strokeColor=none;align=left;fillColor=none;html=1;verticalAlign=middle;whiteSpace=wrap;rounded=0;" vertex="1" parent="1">
          <mxGeometry x="1130" y="390" width="580" height="30" as="geometry" />
        </mxCell>
        <mxCell id="PdSdZM6IH-UgS7kiSACt-88" value="" style="strokeWidth=2;html=1;shape=mxgraph.flowchart.annotation_1;align=left;pointerEvents=1;" vertex="1" parent="1">
          <mxGeometry x="1460" y="440" width="20" height="180" as="geometry" />
        </mxCell>
        <mxCell id="PdSdZM6IH-UgS7kiSACt-111" style="edgeStyle=none;rounded=0;orthogonalLoop=1;jettySize=auto;html=1;exitX=0;exitY=0.5;exitDx=0;exitDy=0;exitPerimeter=0;entryX=-0.2;entryY=0.463;entryDx=0;entryDy=0;entryPerimeter=0;" edge="1" parent="1" source="PdSdZM6IH-UgS7kiSACt-89" target="PdSdZM6IH-UgS7kiSACt-112">
          <mxGeometry relative="1" as="geometry">
            <mxPoint x="1680" y="680" as="targetPoint" />
            <Array as="points" />
          </mxGeometry>
        </mxCell>
        <mxCell id="PdSdZM6IH-UgS7kiSACt-89" value="" style="strokeWidth=2;html=1;shape=mxgraph.flowchart.annotation_1;align=left;pointerEvents=1;rotation=-180;" vertex="1" parent="1">
          <mxGeometry x="1520" y="440" width="20" height="180" as="geometry" />
        </mxCell>
        <mxCell id="PdSdZM6IH-UgS7kiSACt-90" value="&lt;font style=&quot;font-size: 14px;&quot;&gt;$$p(x)*x_1$$&lt;/font&gt;" style="text;strokeColor=none;align=center;fillColor=none;html=1;verticalAlign=middle;whiteSpace=wrap;rounded=0;" vertex="1" parent="1">
          <mxGeometry x="1470" y="450" width="60" height="30" as="geometry" />
        </mxCell>
        <mxCell id="PdSdZM6IH-UgS7kiSACt-91" value="&lt;font style=&quot;font-size: 14px;&quot;&gt;$$p(x)*x_2$$&lt;/font&gt;" style="text;strokeColor=none;align=center;fillColor=none;html=1;verticalAlign=middle;whiteSpace=wrap;rounded=0;" vertex="1" parent="1">
          <mxGeometry x="1470" y="490" width="60" height="30" as="geometry" />
        </mxCell>
        <mxCell id="PdSdZM6IH-UgS7kiSACt-92" value="&lt;font style=&quot;font-size: 14px;&quot;&gt;$$p(x)*x_3$$&lt;/font&gt;" style="text;strokeColor=none;align=center;fillColor=none;html=1;verticalAlign=middle;whiteSpace=wrap;rounded=0;" vertex="1" parent="1">
          <mxGeometry x="1470" y="530" width="60" height="30" as="geometry" />
        </mxCell>
        <mxCell id="PdSdZM6IH-UgS7kiSACt-93" value="&lt;font style=&quot;font-size: 14px;&quot;&gt;$$p(x)*x_4$$&lt;/font&gt;" style="text;strokeColor=none;align=center;fillColor=none;html=1;verticalAlign=middle;whiteSpace=wrap;rounded=0;" vertex="1" parent="1">
          <mxGeometry x="1470" y="575" width="60" height="30" as="geometry" />
        </mxCell>
        <mxCell id="PdSdZM6IH-UgS7kiSACt-97" value="" style="strokeWidth=2;html=1;shape=mxgraph.flowchart.annotation_1;align=left;pointerEvents=1;" vertex="1" parent="1">
          <mxGeometry x="1460" y="635" width="20" height="180" as="geometry" />
        </mxCell>
        <mxCell id="PdSdZM6IH-UgS7kiSACt-98" value="" style="strokeWidth=2;html=1;shape=mxgraph.flowchart.annotation_1;align=left;pointerEvents=1;rotation=-180;" vertex="1" parent="1">
          <mxGeometry x="1520" y="635" width="20" height="180" as="geometry" />
        </mxCell>
        <mxCell id="PdSdZM6IH-UgS7kiSACt-99" value="&lt;font style=&quot;font-size: 14px;&quot;&gt;$$p(y)*y_1$$&lt;/font&gt;" style="text;strokeColor=none;align=center;fillColor=none;html=1;verticalAlign=middle;whiteSpace=wrap;rounded=0;" vertex="1" parent="1">
          <mxGeometry x="1470" y="645" width="60" height="30" as="geometry" />
        </mxCell>
        <mxCell id="PdSdZM6IH-UgS7kiSACt-100" value="&lt;font style=&quot;font-size: 14px;&quot;&gt;$$p(y)*y_2$$&lt;/font&gt;" style="text;strokeColor=none;align=center;fillColor=none;html=1;verticalAlign=middle;whiteSpace=wrap;rounded=0;" vertex="1" parent="1">
          <mxGeometry x="1470" y="685" width="60" height="30" as="geometry" />
        </mxCell>
        <mxCell id="PdSdZM6IH-UgS7kiSACt-101" value="&lt;font style=&quot;font-size: 14px;&quot;&gt;$$p(y)*y_3$$&lt;/font&gt;" style="text;strokeColor=none;align=center;fillColor=none;html=1;verticalAlign=middle;whiteSpace=wrap;rounded=0;" vertex="1" parent="1">
          <mxGeometry x="1470" y="725" width="60" height="30" as="geometry" />
        </mxCell>
        <mxCell id="PdSdZM6IH-UgS7kiSACt-102" value="&lt;font style=&quot;font-size: 14px;&quot;&gt;$$p(y)*y_4$$&lt;/font&gt;" style="text;strokeColor=none;align=center;fillColor=none;html=1;verticalAlign=middle;whiteSpace=wrap;rounded=0;" vertex="1" parent="1">
          <mxGeometry x="1470" y="770" width="60" height="30" as="geometry" />
        </mxCell>
        <mxCell id="PdSdZM6IH-UgS7kiSACt-105" value="" style="strokeWidth=2;html=1;shape=mxgraph.flowchart.annotation_1;align=left;pointerEvents=1;" vertex="1" parent="1">
          <mxGeometry x="1460" y="840" width="20" height="180" as="geometry" />
        </mxCell>
        <mxCell id="PdSdZM6IH-UgS7kiSACt-106" value="" style="strokeWidth=2;html=1;shape=mxgraph.flowchart.annotation_1;align=left;pointerEvents=1;rotation=-180;" vertex="1" parent="1">
          <mxGeometry x="1520" y="840" width="20" height="180" as="geometry" />
        </mxCell>
        <mxCell id="PdSdZM6IH-UgS7kiSACt-107" value="&lt;font style=&quot;font-size: 14px;&quot;&gt;$$p(z)*z_1$$&lt;/font&gt;" style="text;strokeColor=none;align=center;fillColor=none;html=1;verticalAlign=middle;whiteSpace=wrap;rounded=0;" vertex="1" parent="1">
          <mxGeometry x="1470" y="850" width="60" height="30" as="geometry" />
        </mxCell>
        <mxCell id="PdSdZM6IH-UgS7kiSACt-108" value="&lt;font style=&quot;font-size: 14px;&quot;&gt;$$p(z)*z_2$$&lt;/font&gt;" style="text;strokeColor=none;align=center;fillColor=none;html=1;verticalAlign=middle;whiteSpace=wrap;rounded=0;" vertex="1" parent="1">
          <mxGeometry x="1470" y="890" width="60" height="30" as="geometry" />
        </mxCell>
        <mxCell id="PdSdZM6IH-UgS7kiSACt-109" value="&lt;font style=&quot;font-size: 14px;&quot;&gt;$$p(z)*z_3$$&lt;/font&gt;" style="text;strokeColor=none;align=center;fillColor=none;html=1;verticalAlign=middle;whiteSpace=wrap;rounded=0;" vertex="1" parent="1">
          <mxGeometry x="1470" y="930" width="60" height="30" as="geometry" />
        </mxCell>
        <mxCell id="PdSdZM6IH-UgS7kiSACt-110" value="&lt;font style=&quot;font-size: 14px;&quot;&gt;$$p(z)*z_4$$&lt;/font&gt;" style="text;strokeColor=none;align=center;fillColor=none;html=1;verticalAlign=middle;whiteSpace=wrap;rounded=0;" vertex="1" parent="1">
          <mxGeometry x="1470" y="975" width="60" height="30" as="geometry" />
        </mxCell>
        <mxCell id="PdSdZM6IH-UgS7kiSACt-112" value="" style="strokeWidth=2;html=1;shape=mxgraph.flowchart.annotation_1;align=left;pointerEvents=1;" vertex="1" parent="1">
          <mxGeometry x="1750" y="645" width="20" height="180" as="geometry" />
        </mxCell>
        <mxCell id="PdSdZM6IH-UgS7kiSACt-113" value="" style="strokeWidth=2;html=1;shape=mxgraph.flowchart.annotation_1;align=left;pointerEvents=1;rotation=-180;" vertex="1" parent="1">
          <mxGeometry x="2060" y="640" width="20" height="180" as="geometry" />
        </mxCell>
        <mxCell id="PdSdZM6IH-UgS7kiSACt-118" style="edgeStyle=none;rounded=0;orthogonalLoop=1;jettySize=auto;html=1;exitX=0;exitY=0.5;exitDx=0;exitDy=0;exitPerimeter=0;entryX=0;entryY=0.459;entryDx=0;entryDy=0;entryPerimeter=0;" edge="1" parent="1" source="PdSdZM6IH-UgS7kiSACt-98" target="PdSdZM6IH-UgS7kiSACt-112">
          <mxGeometry relative="1" as="geometry" />
        </mxCell>
        <mxCell id="PdSdZM6IH-UgS7kiSACt-119" style="edgeStyle=none;rounded=0;orthogonalLoop=1;jettySize=auto;html=1;exitX=0;exitY=0.5;exitDx=0;exitDy=0;exitPerimeter=0;entryX=-0.16;entryY=0.454;entryDx=0;entryDy=0;entryPerimeter=0;" edge="1" parent="1" source="PdSdZM6IH-UgS7kiSACt-106" target="PdSdZM6IH-UgS7kiSACt-112">
          <mxGeometry relative="1" as="geometry" />
        </mxCell>
        <mxCell id="PdSdZM6IH-UgS7kiSACt-121" value="&lt;font style=&quot;font-size: 14px;&quot;&gt;$$p(x)*x_1$$&lt;/font&gt;" style="text;strokeColor=none;align=center;fillColor=none;html=1;verticalAlign=middle;whiteSpace=wrap;rounded=0;" vertex="1" parent="1">
          <mxGeometry x="1770" y="655" width="60" height="30" as="geometry" />
        </mxCell>
        <mxCell id="PdSdZM6IH-UgS7kiSACt-122" value="&lt;font style=&quot;font-size: 14px;&quot;&gt;$$p(x)*x_2$$&lt;/font&gt;" style="text;strokeColor=none;align=center;fillColor=none;html=1;verticalAlign=middle;whiteSpace=wrap;rounded=0;" vertex="1" parent="1">
          <mxGeometry x="1770" y="695" width="60" height="30" as="geometry" />
        </mxCell>
        <mxCell id="PdSdZM6IH-UgS7kiSACt-123" value="&lt;font style=&quot;font-size: 14px;&quot;&gt;$$p(x)*x_3$$&lt;/font&gt;" style="text;strokeColor=none;align=center;fillColor=none;html=1;verticalAlign=middle;whiteSpace=wrap;rounded=0;" vertex="1" parent="1">
          <mxGeometry x="1770" y="735" width="60" height="30" as="geometry" />
        </mxCell>
        <mxCell id="PdSdZM6IH-UgS7kiSACt-124" value="&lt;font style=&quot;font-size: 14px;&quot;&gt;$$p(x)*x_4$$&lt;/font&gt;" style="text;strokeColor=none;align=center;fillColor=none;html=1;verticalAlign=middle;whiteSpace=wrap;rounded=0;" vertex="1" parent="1">
          <mxGeometry x="1770" y="780" width="60" height="30" as="geometry" />
        </mxCell>
        <mxCell id="PdSdZM6IH-UgS7kiSACt-126" value="&lt;font style=&quot;font-size: 18px;&quot;&gt;+&lt;/font&gt;" style="text;strokeColor=none;align=center;fillColor=none;html=1;verticalAlign=middle;whiteSpace=wrap;rounded=0;" vertex="1" parent="1">
          <mxGeometry x="1820" y="655" width="60" height="30" as="geometry" />
        </mxCell>
        <mxCell id="PdSdZM6IH-UgS7kiSACt-127" value="&lt;font style=&quot;font-size: 18px;&quot;&gt;+&lt;/font&gt;" style="text;strokeColor=none;align=center;fillColor=none;html=1;verticalAlign=middle;whiteSpace=wrap;rounded=0;" vertex="1" parent="1">
          <mxGeometry x="1820" y="695" width="60" height="30" as="geometry" />
        </mxCell>
        <mxCell id="PdSdZM6IH-UgS7kiSACt-128" value="&lt;font style=&quot;font-size: 18px;&quot;&gt;+&lt;/font&gt;" style="text;strokeColor=none;align=center;fillColor=none;html=1;verticalAlign=middle;whiteSpace=wrap;rounded=0;" vertex="1" parent="1">
          <mxGeometry x="1820" y="735" width="60" height="30" as="geometry" />
        </mxCell>
        <mxCell id="PdSdZM6IH-UgS7kiSACt-129" value="&lt;font style=&quot;font-size: 18px;&quot;&gt;+&lt;/font&gt;" style="text;strokeColor=none;align=center;fillColor=none;html=1;verticalAlign=middle;whiteSpace=wrap;rounded=0;" vertex="1" parent="1">
          <mxGeometry x="1820" y="780" width="60" height="30" as="geometry" />
        </mxCell>
        <mxCell id="PdSdZM6IH-UgS7kiSACt-134" value="&lt;font style=&quot;font-size: 14px;&quot;&gt;$$p(y)*y_1$$&lt;/font&gt;" style="text;strokeColor=none;align=center;fillColor=none;html=1;verticalAlign=middle;whiteSpace=wrap;rounded=0;" vertex="1" parent="1">
          <mxGeometry x="1880" y="655" width="60" height="30" as="geometry" />
        </mxCell>
        <mxCell id="PdSdZM6IH-UgS7kiSACt-135" value="&lt;font style=&quot;font-size: 14px;&quot;&gt;$$p(y)*y_2$$&lt;/font&gt;" style="text;strokeColor=none;align=center;fillColor=none;html=1;verticalAlign=middle;whiteSpace=wrap;rounded=0;" vertex="1" parent="1">
          <mxGeometry x="1880" y="695" width="60" height="30" as="geometry" />
        </mxCell>
        <mxCell id="PdSdZM6IH-UgS7kiSACt-136" value="&lt;font style=&quot;font-size: 14px;&quot;&gt;$$p(y)*y_3$$&lt;/font&gt;" style="text;strokeColor=none;align=center;fillColor=none;html=1;verticalAlign=middle;whiteSpace=wrap;rounded=0;" vertex="1" parent="1">
          <mxGeometry x="1880" y="735" width="60" height="30" as="geometry" />
        </mxCell>
        <mxCell id="PdSdZM6IH-UgS7kiSACt-137" value="&lt;font style=&quot;font-size: 14px;&quot;&gt;$$p(y)*y_4$$&lt;/font&gt;" style="text;strokeColor=none;align=center;fillColor=none;html=1;verticalAlign=middle;whiteSpace=wrap;rounded=0;" vertex="1" parent="1">
          <mxGeometry x="1880" y="780" width="60" height="30" as="geometry" />
        </mxCell>
        <mxCell id="PdSdZM6IH-UgS7kiSACt-138" value="&lt;font style=&quot;font-size: 18px;&quot;&gt;+&lt;/font&gt;" style="text;strokeColor=none;align=center;fillColor=none;html=1;verticalAlign=middle;whiteSpace=wrap;rounded=0;" vertex="1" parent="1">
          <mxGeometry x="1940" y="657.5" width="60" height="30" as="geometry" />
        </mxCell>
        <mxCell id="PdSdZM6IH-UgS7kiSACt-139" value="&lt;font style=&quot;font-size: 18px;&quot;&gt;+&lt;/font&gt;" style="text;strokeColor=none;align=center;fillColor=none;html=1;verticalAlign=middle;whiteSpace=wrap;rounded=0;" vertex="1" parent="1">
          <mxGeometry x="1940" y="697.5" width="60" height="30" as="geometry" />
        </mxCell>
        <mxCell id="PdSdZM6IH-UgS7kiSACt-140" value="&lt;font style=&quot;font-size: 18px;&quot;&gt;+&lt;/font&gt;" style="text;strokeColor=none;align=center;fillColor=none;html=1;verticalAlign=middle;whiteSpace=wrap;rounded=0;" vertex="1" parent="1">
          <mxGeometry x="1940" y="737.5" width="60" height="30" as="geometry" />
        </mxCell>
        <mxCell id="PdSdZM6IH-UgS7kiSACt-141" value="&lt;font style=&quot;font-size: 18px;&quot;&gt;+&lt;/font&gt;" style="text;strokeColor=none;align=center;fillColor=none;html=1;verticalAlign=middle;whiteSpace=wrap;rounded=0;" vertex="1" parent="1">
          <mxGeometry x="1940" y="782.5" width="60" height="30" as="geometry" />
        </mxCell>
        <mxCell id="PdSdZM6IH-UgS7kiSACt-142" value="&lt;font style=&quot;font-size: 14px;&quot;&gt;$$p(z)*z_1$$&lt;/font&gt;" style="text;strokeColor=none;align=center;fillColor=none;html=1;verticalAlign=middle;whiteSpace=wrap;rounded=0;" vertex="1" parent="1">
          <mxGeometry x="1990" y="650" width="60" height="30" as="geometry" />
        </mxCell>
        <mxCell id="PdSdZM6IH-UgS7kiSACt-143" value="&lt;font style=&quot;font-size: 14px;&quot;&gt;$$p(z)*z_2$$&lt;/font&gt;" style="text;strokeColor=none;align=center;fillColor=none;html=1;verticalAlign=middle;whiteSpace=wrap;rounded=0;" vertex="1" parent="1">
          <mxGeometry x="1990" y="690" width="60" height="30" as="geometry" />
        </mxCell>
        <mxCell id="PdSdZM6IH-UgS7kiSACt-144" value="&lt;font style=&quot;font-size: 14px;&quot;&gt;$$p(z)*z_3$$&lt;/font&gt;" style="text;strokeColor=none;align=center;fillColor=none;html=1;verticalAlign=middle;whiteSpace=wrap;rounded=0;" vertex="1" parent="1">
          <mxGeometry x="1990" y="730" width="60" height="30" as="geometry" />
        </mxCell>
        <mxCell id="PdSdZM6IH-UgS7kiSACt-145" value="&lt;font style=&quot;font-size: 14px;&quot;&gt;$$p(z)*z_4$$&lt;/font&gt;" style="text;strokeColor=none;align=center;fillColor=none;html=1;verticalAlign=middle;whiteSpace=wrap;rounded=0;" vertex="1" parent="1">
          <mxGeometry x="1990" y="775" width="60" height="30" as="geometry" />
        </mxCell>
      </root>
    </mxGraphModel>
  </diagram>
</mxfile>
